<?xml version="1.0" encoding="UTF-8"?>
<svg width="631px" height="164px" viewBox="0 0 631 164" version="1.1"
     xmlns="http://www.w3.org/2000/svg" xmlns:xlink="http://www.w3.org/1999/xlink">
  <title>logo / wijPIDZ / blue</title>
  <g id="logo-/-wijPIDZ-/-blue" stroke="none" stroke-width="1" fill="none" fill-rule="evenodd">
    <path
      d="M339,87.2776618 C339,57.7891441 316.46056,39.2609603 289.989822,39.2609603 C280.554707,39.2609603 271.381679,41.6096033 263.78117,46.045929 L263.78117,39 L236,39 L236,164 L264.043257,164 L264.043257,127.987474 C271.643766,132.4238 280.554707,134.772443 290.251908,134.772443 C316.46056,134.772443 339,116.244259 339,87.2776618"
      id="Path" fill="currentColor" fill-rule="nonzero"></path>
    <path
      d="M379,15.6302521 C379,5.99159664 371.655738,0 363,0 C354.344262,0 347,5.99159664 347,15.6302521 C347,25.0084034 354.344262,31 363,31 C371.655738,31 379,25.0084034 379,15.6302521"
      id="Path" fill="currentColor" fill-rule="nonzero"></path>
    <rect id="Rectangle" fill="currentColor" fill-rule="nonzero" x="349" y="39" width="28"
          height="96"></rect>
    <path
      d="M461.956743,135.737903 L490,135.737903 L490,6 L461.956743,6 L461.956743,46.625 C454.356234,42.1693548 445.445293,39.8104839 436.010178,39.8104839 C409.53944,39.8104839 387,58.4193548 387,87.5120968 C387,93.2782258 387.78626,98.5201613 389.358779,103.237903 C389.358779,103.762097 389.620865,104.024194 389.882952,104.548387 C389.882952,104.810484 390.145038,105.072581 390.145038,105.334677 C396.959288,124.205645 415.305344,136 436.010178,136 C445.445293,136 454.356234,133.641129 461.956743,129.185484 L461.956743,135.737903 Z"
      id="Path" fill="currentColor" fill-rule="nonzero"></path>
    <polygon id="Path" fill="currentColor" fill-rule="nonzero"
             points="503 135 590 135 590 108.770492 552.230539 108.770492 590 40.0491803 590 39 505.344311 39 505.344311 64.9672131 542.853293 64.9672131 503 134.213115"></polygon>
    <path
      d="M631,120.630252 C631,110.991597 623.655738,105 615,105 C606.344262,105 599,110.991597 599,120.630252 C599,130.008403 606.344262,136 615,136 C623.655738,136 631,130.008403 631,120.630252"
      id="Path" fill="currentColor" fill-rule="nonzero"></path>
    <path
      d="M39.6580125,131.973085 L62.9674724,61.8219462 C63.1803442,61.1801242 63.3825724,60.4634231 63.574157,59.6718427 C63.7657416,58.8802622 63.9679698,58.0565908 64.1808415,57.2008282 C64.5640107,58.9551415 64.9897543,60.4955141 65.4580722,61.8219462 L65.4580722,61.8219462 L88.639809,131.973085 L99.7517159,131.973085 L128.297822,40 L118.65473,40 C117.590371,40 116.685666,40.2995169 115.940615,40.8985507 C115.195564,41.4975845 114.716602,42.1821946 114.50373,42.952381 L114.50373,42.952381 L95.5368547,106.877847 C95.1962598,107.990338 94.9195265,109.188406 94.7066547,110.47205 C94.493783,111.755694 94.259624,113.10352 94.0041779,114.515528 C93.4081369,111.648723 92.7269472,109.10283 91.9606088,106.877847 L91.9606088,106.877847 L70.5669949,42.952381 C70.2689744,42.0966184 69.7687258,41.3906142 69.0662489,40.8343685 C68.363772,40.2781228 67.4590669,40 66.3521337,40 L66.3521337,40 L62.7758878,40 C61.7115289,40 60.8068238,40.3102139 60.0617726,40.9306418 C59.3167214,41.5510697 58.8164727,42.2249827 58.5610266,42.952381 L58.5610266,42.952381 L37.0396896,106.877847 C36.6565204,107.990338 36.3159256,109.220497 36.0179051,110.568323 C35.7198846,111.916149 35.4218641,113.31746 35.1238436,114.772257 C34.8683975,113.31746 34.6023078,111.926846 34.3255745,110.600414 C34.0488411,109.273982 33.7401771,108.033126 33.3995822,106.877847 L33.3995822,106.877847 L14.4965682,42.952381 C14.2411221,42.0966184 13.751517,41.3906142 13.0277529,40.8343685 C12.3039889,40.2781228 11.3886402,40 10.281707,40 L10.281707,40 L0,40 L28.5461056,131.973085 L39.6580125,131.973085 Z M155.055804,131.973085 L155.055804,40 L142.666667,40 L142.666667,131.973085 L155.055804,131.973085 Z M185.198448,133 C189.839053,133 193.947478,132.251208 197.523724,130.753623 C201.09997,129.256039 204.112106,127.105935 206.560131,124.303313 C209.008157,121.50069 210.860141,118.066943 212.116085,114.00207 C213.372028,109.937198 214,105.337474 214,100.202899 L214,100.202899 L214,40 L201.674724,40 L201.674724,100.459627 C201.674724,104.310559 201.280911,107.637336 200.493286,110.439959 C199.70566,113.242581 198.556152,115.542443 197.044763,117.339545 C195.533373,119.136646 193.681389,120.463078 191.488809,121.318841 C189.29623,122.174603 186.794987,122.602484 183.985079,122.602484 C181.856361,122.602484 180.153387,122.409938 178.876156,122.024845 C177.598926,121.639752 176.577141,121.447205 175.810803,121.447205 C174.916741,121.447205 174.246195,121.671843 173.799164,122.121118 C173.352134,122.570393 173.086044,123.15873 173.000895,123.886128 C172.873172,125.084196 172.745449,126.292961 172.617726,127.512422 C172.490003,128.731884 172.383567,129.962043 172.298418,131.202899 C176.768726,132.400966 181.068736,133 185.198448,133 Z"
      id="WIJ" fill="currentColor" fill-rule="nonzero"></path>
  </g>
</svg>
